<svg width="204" height="129" viewBox="0 0 204 129" fill="none" xmlns="http://www.w3.org/2000/svg">
<g filter="url(#filter0_d_2_16)">
<path d="M37.1476 34.4327L4.54838 38.4353C0.802514 38.8953 -2.67232 41.5626 -1.72568 45.0875L22.5292 112.061C22.5292 112.061 35.0246 58.9909 37.1701 46.3336C37.8348 42.5408 42.7528 40.7466 46.4987 40.2867L98.7384 33.8724C98.7384 33.8724 89.8899 20.3943 88.9864 18.8948C87.3988 16.0087 84.9598 14.5577 80.5053 15.1046L46.9949 19.2192C43.3503 19.6667 40.1029 21.6759 39.4378 24.6285C38.8655 27.4996 37.1476 34.4327 37.1476 34.4327ZM86.5526 28.3665L46.0567 33.3388C46.0567 33.3388 49.4617 25.9185 54.0175 25.3591L75.5816 22.7114C80.4411 22.1147 86.5526 28.3665 86.5526 28.3665ZM33.2114 113.691C30.471 117.318 26.1524 119.809 21.0904 120.431L180.34 100.877C185.807 100.206 189.392 97.595 190.065 93.8712C192.665 78.2172 199.925 33.5621 199.925 33.5621C200.21 30.026 196.269 28.8993 193.03 29.2971L160.329 33.3122L159.084 23.1719C158.949 22.0682 156.003 19.839 151.953 20.3363L113.887 25.0102C108.623 25.6566 105.571 30.0926 105.571 30.0926L99.5854 40.7706L54.9387 46.2526C51.699 46.6504 48.7215 48.3464 48.3766 50.5594C48.3766 50.5594 37.9544 98.7538 37.1718 103.261C36.7766 105.901 35.7831 110.364 33.2114 113.691ZM154.052 34.0829L109.709 39.5276C109.709 39.5276 114.734 31.9084 120.302 31.2247L143.486 28.3781C150.674 27.4955 154.052 34.0829 154.052 34.0829Z" fill="url(#paint0_linear_2_16)"/>
</g>
<path d="M110.642 84.9104C109.197 85.0878 107.821 85.1036 106.513 84.9579C105.204 84.7963 104.105 84.5121 103.217 84.1053L104.876 79.6943C106.797 80.5062 108.734 80.7922 110.687 80.5524C111.402 80.4646 111.939 80.31 112.299 80.0885C112.659 79.867 112.82 79.6054 112.783 79.3037C112.748 79.0178 112.521 78.8119 112.103 78.686C111.7 78.5581 111.065 78.4426 110.198 78.3395C109.051 78.1901 108.095 78.0174 107.33 77.8212C106.562 77.6092 105.863 77.2356 105.233 76.7003C104.617 76.1473 104.248 75.3705 104.125 74.37C103.971 73.1154 104.17 71.9787 104.722 70.9599C105.288 69.9232 106.175 69.0727 107.383 68.4086C108.589 67.7285 110.058 67.2822 111.789 67.0697C113.027 66.9176 114.194 66.9033 115.289 67.0267C116.399 67.1323 117.37 67.3676 118.205 67.7326L116.683 72.0785C115.982 71.7455 115.221 71.5246 114.402 71.4156C113.598 71.3047 112.784 71.2999 111.958 71.4013C111.18 71.4969 110.59 71.6822 110.188 71.9571C109.787 72.2321 109.605 72.5205 109.642 72.8222C109.679 73.1239 109.898 73.3387 110.301 73.4666C110.72 73.5926 111.386 73.7042 112.301 73.8014C113.412 73.9229 114.35 74.0818 115.116 74.2779C115.897 74.4721 116.595 74.8378 117.209 75.375C117.823 75.9121 118.191 76.673 118.312 77.6576C118.464 78.8963 118.256 80.0261 117.688 81.0469C117.12 82.0677 116.233 82.9181 115.027 83.5982C113.819 84.2624 112.357 84.6998 110.642 84.9104ZM128.063 65.4583L135.59 64.5341C137.337 64.3196 138.881 64.4202 140.222 64.8359C141.578 65.2497 142.663 65.9466 143.477 66.9268C144.29 67.9069 144.786 69.1196 144.963 70.5647C145.199 72.4863 144.962 74.2322 144.252 75.8024C143.54 77.3568 142.439 78.6285 140.949 79.6175C139.472 80.5887 137.725 81.1981 135.708 81.4457L126.775 82.5426L128.063 65.4583ZM135.361 77.0393C136.806 76.8618 137.87 76.2718 138.553 75.2691C139.25 74.2485 139.51 73.0236 139.335 71.5944C139.216 70.6256 138.822 69.9163 138.155 69.4663C137.503 69.0144 136.613 68.8577 135.485 68.9961L133.342 69.2593L132.74 77.361L135.361 77.0393Z" fill="black"/>
<defs>
<filter id="filter0_d_2_16" x="-1.88321" y="14.9908" width="210.823" height="113.44" filterUnits="userSpaceOnUse" color-interpolation-filters="sRGB">
<feFlood flood-opacity="0" result="BackgroundImageFix"/>
<feColorMatrix in="SourceAlpha" type="matrix" values="0 0 0 0 0 0 0 0 0 0 0 0 0 0 0 0 0 0 127 0" result="hardAlpha"/>
<feOffset dx="5" dy="4"/>
<feGaussianBlur stdDeviation="2"/>
<feComposite in2="hardAlpha" operator="out"/>
<feColorMatrix type="matrix" values="0 0 0 0 0 0 0 0 0 0 0 0 0 0 0 0 0 0 0.25 0"/>
<feBlend mode="normal" in2="BackgroundImageFix" result="effect1_dropShadow_2_16"/>
<feBlend mode="normal" in="SourceGraphic" in2="effect1_dropShadow_2_16" result="shape"/>
</filter>
<linearGradient id="paint0_linear_2_16" x1="95.9143" y1="13.2126" x2="107.772" y2="109.787" gradientUnits="userSpaceOnUse">
<stop stop-color="white"/>
<stop offset="0.0001" stop-color="white"/>
<stop offset="1" stop-color="#A3D3FF"/>
</linearGradient>
</defs>
</svg>
